default_states
version=1
nRows=4
nColumns=205
inDegrees=yes

# SIMM Motion File Header:
name default_states
datacolumns 205
datarows 4
otherdata 1
range 0.58000000 0.58000873
endheader
time	pelvis_tilt	pelvis_list	pelvis_rotation	pelvis_tx	pelvis_ty	pelvis_tz	hip_flexion_r	hip_adduction_r	hip_rotation_r	knee_angle_r	knee_angle_r_beta	ankle_angle_r	subtalar_angle_r	mtp_angle_r	hip_flexion_l	hip_adduction_l	hip_rotation_l	knee_angle_l	knee_angle_l_beta	ankle_angle_l	subtalar_angle_l	mtp_angle_l	lumbar_extension	lumbar_bending	lumbar_rotation	arm_flex_r	arm_add_r	arm_rot_r	elbow_flex_r	pro_sup_r	wrist_flex_r	wrist_dev_r	arm_flex_l	arm_add_l	arm_rot_l	elbow_flex_l	pro_sup_l	wrist_flex_l	wrist_dev_l	pelvis_tilt_u	pelvis_list_u	pelvis_rotation_u	pelvis_tx_u	pelvis_ty_u	pelvis_tz_u	hip_flexion_r_u	hip_adduction_r_u	hip_rotation_r_u	knee_angle_r_u	knee_angle_r_beta_u	ankle_angle_r_u	subtalar_angle_r_u	mtp_angle_r_u	hip_flexion_l_u	hip_adduction_l_u	hip_rotation_l_u	knee_angle_l_u	knee_angle_l_beta_u	ankle_angle_l_u	subtalar_angle_l_u	mtp_angle_l_u	lumbar_extension_u	lumbar_bending_u	lumbar_rotation_u	arm_flex_r_u	arm_add_r_u	arm_rot_r_u	elbow_flex_r_u	pro_sup_r_u	wrist_flex_r_u	wrist_dev_r_u	arm_flex_l_u	arm_add_l_u	arm_rot_l_u	elbow_flex_l_u	pro_sup_l_u	wrist_flex_l_u	wrist_dev_l_u	add_brev_r.activation	add_long_r.activation	add_long_r.fiber_length	add_mag3_r.activation	add_mag4_r.activation	add_mag4_r.fiber_length	add_mag2_r.activation	add_mag1_r.activation	bifemlh_r.activation	bifemlh_r.fiber_length	bifemsh_r.activation	ext_dig_r.activation	ext_dig_r.fiber_length	ext_hal_r.activation	ext_hal_r.fiber_length	flex_dig_r.activation	flex_dig_r.fiber_length	flex_hal_r.activation	flex_hal_r.fiber_length	lat_gas_r.activation	lat_gas_r.fiber_length	med_gas_r.activation	med_gas_r.fiber_length	glut_max1_r.activation	glut_max2_r.activation	glut_max3_r.activation	glut_med1_r.activation	glut_med2_r.activation	glut_med3_r.activation	glut_min1_r.activation	glut_min2_r.activation	glut_min3_r.activation	glut_min3_r.fiber_length	grac_r.activation	iliacus_r.activation	per_brev_r.activation	per_brev_r.fiber_length	per_long_r.activation	per_long_r.fiber_length	peri_r.activation	peri_r.fiber_length	psoas_r.activation	rect_fem_r.activation	rect_fem_r.fiber_length	sar_r.activation	semimem_r.activation	semimem_r.fiber_length	semiten_r.activation	semiten_r.fiber_length	soleus_r.activation	soleus_r.fiber_length	tfl_r.activation	tfl_r.fiber_length	tib_ant_r.activation	tib_ant_r.fiber_length	tib_post_r.activation	tib_post_r.fiber_length	vas_int_r.activation	vas_int_r.fiber_length	vas_lat_r.activation	vas_lat_r.fiber_length	vas_med_r.activation	vas_med_r.fiber_length	add_brev_l.activation	add_long_l.activation	add_long_l.fiber_length	add_mag3_l.activation	add_mag4_l.activation	add_mag4_l.fiber_length	add_mag2_l.activation	add_mag1_l.activation	bifemlh_l.activation	bifemlh_l.fiber_length	bifemsh_l.activation	ext_dig_l.activation	ext_dig_l.fiber_length	ext_hal_l.activation	ext_hal_l.fiber_length	flex_dig_l.activation	flex_dig_l.fiber_length	flex_hal_l.activation	flex_hal_l.fiber_length	lat_gas_l.activation	lat_gas_l.fiber_length	med_gas_l.activation	med_gas_l.fiber_length	glut_max1_l.activation	glut_max2_l.activation	glut_max3_l.activation	glut_med1_l.activation	glut_med2_l.activation	glut_med3_l.activation	glut_min1_l.activation	glut_min2_l.activation	glut_min3_l.activation	glut_min3_l.fiber_length	grac_l.activation	iliacus_l.activation	per_brev_l.activation	per_brev_l.fiber_length	per_long_l.activation	per_long_l.fiber_length	peri_l.activation	peri_l.fiber_length	psoas_l.activation	rect_fem_l.activation	rect_fem_l.fiber_length	sar_l.activation	semimem_l.activation	semimem_l.fiber_length	semiten_l.activation	semiten_l.fiber_length	soleus_l.activation	soleus_l.fiber_length	tfl_l.activation	tfl_l.fiber_length	tib_ant_l.activation	tib_ant_l.fiber_length	tib_post_l.activation	tib_post_l.fiber_length	vas_int_l.activation	vas_int_l.fiber_length	vas_lat_l.activation	vas_lat_l.fiber_length	vas_med_l.activation	vas_med_l.fiber_length
      0.58000000	     -6.96586789	      3.42381931	     -5.45887888	      0.12126793	      0.97193097	     -0.21138027	     21.12302075	     -4.61103886	     -1.75535533	     71.27739471	     71.27739471	    -26.11056736	      0.00000000	      0.00000000	     29.29814701	      3.44340931	     -3.46196398	     28.01976243	     28.01976243	      6.37731705	      0.00000000	      0.00000000	     -8.60980642	     -6.96028098	      8.11259307	     -0.34520650	     -6.68460005	     -6.27489798	     37.44170043	     51.11248774	      0.00000000	      0.00000000	      7.34923109	    -12.40146693	      1.25339216	     39.55414253	     47.15368341	      0.00000000	      0.00000000	     -3.78669067	     15.87070862	     -2.93447439	      1.27434436	      0.19069784	     -0.00050063	    222.05125455	    -15.23756504	     11.49722207	    201.25639939	    201.25639939	    181.60955856	      0.00000000	      0.00000000	   -103.39986154	     26.94225399	      5.43005624	    -39.35322400	    -39.35322400	     60.55114522	      0.00000000	      0.00000000	     -5.35829729	    -17.15819921	    -15.97771307	    -15.31224322	     -0.99299774	     11.08474689	    -29.66584783	     -1.34720827	      0.00000000	      0.00000000	     18.56425942	     -1.29001906	      5.46396102	     49.03792273	      2.39580354	      0.00000000	      0.00000000	      0.06441239	      0.29932928	      0.10963437	      0.02000000	      0.02000000	      0.16145821	      0.02000000	      0.02000000	      0.02000000	      0.07546371	      0.50583368	      0.10609376	      0.08945714	      0.02000000	      0.10179429	      0.02000000	      0.04475810	      0.02000000	      0.04802981	      0.02000000	      0.03135291	      0.02000000	      0.02138217	      0.02000000	      0.02000000	      0.02000000	      0.02000000	      0.02000000	      0.02000000	      0.09645909	      0.09836567	      0.06604338	      0.03677784	      0.24697107	      0.58721129	      0.02000000	      0.05132518	      0.02000000	      0.05619180	      0.08804894	      0.02304781	      0.63563992	      0.02000000	      0.10736503	      0.53948600	      0.04338307	      0.03701056	      0.03798064	      0.19260143	      0.02000000	      0.03557652	      0.24445821	      0.09417332	      0.23545382	      0.08939141	      0.02000000	      0.03852845	      0.02000000	      0.13995815	      0.02000000	      0.13703892	      0.02000000	      0.13481006	      0.02000000	      0.02000000	      0.09618623	      0.02000000	      0.05587787	      0.16389220	      0.02000000	      0.02000000	      0.02000000	      0.11102988	      0.02000000	      0.02000000	      0.07207155	      0.02000000	      0.08148491	      0.02000000	      0.05055662	      0.02000000	      0.05730322	      0.02000000	      0.07521567	      0.02000000	      0.06523241	      0.56921419	      0.66436095	      0.02000000	      0.99999523	      0.97197642	      0.70907297	      0.77550586	      0.66123668	      0.36483748	      0.04295758	      0.02000000	      0.36446867	      0.02000000	      0.05559463	      0.02000000	      0.06185915	      0.36038874	      0.02645460	      0.02000000	      0.08529933	      0.07144095	      0.02000000	      0.36483748	      0.06858867	      0.06588182	      0.24139898	      0.02000000	      0.05778442	      0.89162876	      0.07363554	      0.02000000	      0.06946618	      0.02000000	      0.04471464	      0.16901326	      0.10850433	      0.50243538	      0.10216040	      0.27503245	      0.10557373
      0.58000125	     -6.96587261	      3.42383910	     -5.45888254	      0.12126952	      0.97193121	     -0.21138027	     21.12329761	     -4.61105785	     -1.75534099	     71.27764565	     71.27764565	    -26.11034091	      0.00000000	     -0.00000000	     29.29801808	      3.44344290	     -3.46195721	     28.01971336	     28.01971336	      6.37739264	      0.00000000	      0.00000000	     -8.60981310	     -6.96030237	      8.11257315	     -0.34522559	     -6.68460129	     -6.27488416	     37.44166344	     51.11248606	     -0.00000000	     -0.00000000	      7.34925424	    -12.40146854	      1.25339897	     39.55420368	     47.15368640	      0.00000000	     -0.00000000	     -3.78592857	     15.86739942	     -2.93530932	      1.27434534	      0.19069758	     -0.00049681	    222.04864906	    -15.23270761	     11.49779479	    201.25065128	    201.25065128	    181.62065907	      0.00000000	      0.00000000	   -103.40174407	     26.93936855	      5.43233330	    -39.34820038	    -39.34820038	     60.69570550	      0.00000000	      0.00000000	     -5.35902266	    -17.15478958	    -15.97655020	    -15.31262258	     -0.99328677	     11.08473620	    -29.66513357	     -1.34742726	     -0.00000000	     -0.00000000	     18.56355265	     -1.29000994	      5.46394766	     49.03919927	      2.39580895	      0.00000000	     -0.00000000	      0.06441323	      0.29932416	      0.10963418	      0.02000000	      0.02000000	      0.16145844	      0.02000000	      0.02000000	      0.02000000	      0.07546382	      0.50582982	      0.10617573	      0.08945713	      0.02000000	      0.10179418	      0.02000000	      0.04475814	      0.02000000	      0.04802988	      0.02000000	      0.03135293	      0.02000000	      0.02138208	      0.02000000	      0.02000000	      0.02000000	      0.02000341	      0.02000000	      0.02000000	      0.09645950	      0.09836426	      0.06604260	      0.03677788	      0.24696851	      0.58720296	      0.02000000	      0.05132521	      0.02000000	      0.05619184	      0.08804781	      0.02304786	      0.63562968	      0.02000000	      0.10736500	      0.53947821	      0.04339254	      0.03701059	      0.03798512	      0.19260146	      0.02000000	      0.03557667	      0.24445215	      0.09417332	      0.23554598	      0.08939142	      0.02000000	      0.03852850	      0.02000000	      0.13995826	      0.02000000	      0.13703904	      0.02000000	      0.13481016	      0.02000000	      0.02000000	      0.09618629	      0.02000000	      0.05587722	      0.16389207	      0.02000000	      0.02000000	      0.02000000	      0.11102977	      0.02000000	      0.02000000	      0.07207149	      0.02000000	      0.08148485	      0.02000000	      0.05055663	      0.02000000	      0.05730324	      0.02000000	      0.07521574	      0.02000000	      0.06523248	      0.56921250	      0.66436381	      0.02000000	      0.99999523	      0.97197782	      0.70905748	      0.77551920	      0.66124814	      0.36484739	      0.04295761	      0.02000000	      0.36445743	      0.02000000	      0.05559464	      0.02000000	      0.06185916	      0.36037831	      0.02645464	      0.02000000	      0.08529828	      0.07144097	      0.02000000	      0.36482622	      0.06858881	      0.06588096	      0.24139889	      0.02000000	      0.05778447	      0.89163456	      0.07363566	      0.02000000	      0.06946611	      0.02000000	      0.04471465	      0.16901371	      0.10850436	      0.50244081	      0.10216047	      0.27504015	      0.10557378
      0.58000249	     -6.96587733	      3.42385888	     -5.45888620	      0.12127111	      0.97193145	     -0.21138027	     21.12357447	     -4.61107684	     -1.75532665	     71.27789658	     71.27789658	    -26.11011445	      0.00000000	      0.00000000	     29.29788915	      3.44347649	     -3.46195043	     28.01966430	     28.01966430	      6.37746841	      0.00000000	      0.00000000	     -8.60981978	     -6.96032376	      8.11255323	     -0.34524468	     -6.68460252	     -6.27487034	     37.44162645	     51.11248438	     -0.00000000	     -0.00000000	      7.34927738	    -12.40147015	      1.25340578	     39.55426482	     47.15368939	      0.00000000	      0.00000000	     -3.78516681	     15.86409029	     -2.93614420	      1.27434631	      0.19069732	     -0.00049299	    222.04604404	    -15.22785026	     11.49836744	    201.24490315	    201.24490315	    181.63175716	      0.00000000	      0.00000000	   -103.40362591	     26.93648314	      5.43461014	    -39.34317596	    -39.34317596	     60.84026837	      0.00000000	      0.00000000	     -5.35974765	    -17.15137999	    -15.97538735	    -15.31300197	     -0.99357580	     11.08472550	    -29.66441934	     -1.34764626	     -0.00000000	     -0.00000000	     18.56284586	     -1.29000083	      5.46393430	     49.04047581	      2.39581435	      0.00000000	      0.00000000	      0.06441424	      0.29931808	      0.10963399	      0.02000000	      0.02000000	      0.16145867	      0.02000000	      0.02000000	      0.02000000	      0.07546393	      0.50582539	      0.10627438	      0.08945711	      0.02000000	      0.10179407	      0.02000000	      0.04475818	      0.02000000	      0.04802995	      0.02000000	      0.03135294	      0.02000000	      0.02138199	      0.02000000	      0.02000000	      0.02000000	      0.02000750	      0.02000000	      0.02000000	      0.09646010	      0.09836268	      0.06604174	      0.03677793	      0.24696547	      0.58719325	      0.02000000	      0.05132525	      0.02000000	      0.05619187	      0.08804647	      0.02304791	      0.63561768	      0.02000000	      0.10736496	      0.53946910	      0.04340389	      0.03701061	      0.03799049	      0.19260149	      0.02000000	      0.03557682	      0.24444608	      0.09417333	      0.23565766	      0.08939143	      0.02000000	      0.03852855	      0.02000000	      0.13995837	      0.02000000	      0.13703915	      0.02000000	      0.13481026	      0.02000000	      0.02000000	      0.09618635	      0.02000000	      0.05587656	      0.16389194	      0.02000000	      0.02000000	      0.02000000	      0.11102966	      0.02000000	      0.02000000	      0.07207143	      0.02000000	      0.08148479	      0.02000000	      0.05055664	      0.02000000	      0.05730326	      0.02000000	      0.07521581	      0.02000000	      0.06523254	      0.56921204	      0.66436847	      0.02000000	      0.99999523	      0.97197961	      0.70903988	      0.77553603	      0.66126313	      0.36486153	      0.04295763	      0.02000000	      0.36444619	      0.02000000	      0.05559465	      0.02000000	      0.06185918	      0.36036727	      0.02645467	      0.02000000	      0.08529700	      0.07144099	      0.02000000	      0.36481497	      0.06858894	      0.06588011	      0.24139880	      0.02000000	      0.05778451	      0.89164191	      0.07363578	      0.02000000	      0.06946605	      0.02000000	      0.04471466	      0.16901494	      0.10850438	      0.50244913	      0.10216054	      0.27505077	      0.10557383
      0.58000873	     -6.96590092	      3.42395773	     -5.45890452	      0.12127905	      0.97193263	     -0.21138027	     21.12495874	     -4.61117170	     -1.75525496	     71.27915111	     71.27915111	    -26.10898193	      0.00000000	      0.00000000	     29.29724447	      3.44364438	     -3.46191651	     28.01941911	     28.01941911	      6.37784996	      0.00000000	     -0.00000000	     -8.60985321	     -6.96043064	      8.11245365	     -0.34534016	     -6.68460872	     -6.27480123	     37.44144152	     51.11247598	     -0.00000000	      0.00000000	      7.34939310	    -12.40147819	      1.25343985	     39.55457058	     47.15370432	     -0.00000000	      0.00000000	     -3.78136334	     15.84754570	     -2.94031793	      1.27435119	      0.19069599	     -0.00047390	    222.03302608	    -15.20356459	     11.50122964	    201.21616216	    201.21616216	    181.68721138	      0.00000000	      0.00000000	   -103.41302475	     26.92205645	      5.44599118	    -39.31804180	    -39.31804180	     61.56312131	      0.00000000	     -0.00000000	     -5.36336689	    -17.13433251	    -15.96957338	    -15.31489917	     -0.99502085	     11.08467198	    -29.66084839	     -1.34874123	      0.00000000	      0.00000000	     18.55931161	     -1.28995532	      5.46386758	     49.04685853	      2.39584130	     -0.00000000	      0.00000000	      0.06441927	      0.29928767	      0.10963303	      0.02000000	      0.02000000	      0.16145981	      0.02000000	      0.02000000	      0.02000000	      0.07546447	      0.50580326	      0.10676700	      0.08945705	      0.02000000	      0.10179353	      0.02000000	      0.04475839	      0.02000000	      0.04803030	      0.02000000	      0.03135302	      0.02000000	      0.02138153	      0.02000000	      0.02000000	      0.02000000	      0.02002795	      0.02000000	      0.02000000	      0.09646312	      0.09835477	      0.06603744	      0.03677814	      0.24695028	      0.58714473	      0.02000000	      0.05132541	      0.02000000	      0.05619206	      0.08803977	      0.02304815	      0.63555772	      0.02000000	      0.10736480	      0.53942359	      0.04346062	      0.03701075	      0.03801731	      0.19260163	      0.02000000	      0.03557756	      0.24441577	      0.09417334	      0.23621550	      0.08939147	      0.02000000	      0.03852878	      0.02000000	      0.13995892	      0.02000000	      0.13703974	      0.02000000	      0.13481077	      0.02000000	      0.02000000	      0.09618663	      0.02000000	      0.05587330	      0.16389131	      0.02000000	      0.02000000	      0.02000000	      0.11102911	      0.02000000	      0.02000000	      0.07207115	      0.02000000	      0.08148448	      0.02000000	      0.05055669	      0.02000000	      0.05730336	      0.02000000	      0.07521617	      0.02000000	      0.06523288	      0.56920976	      0.66439178	      0.02000000	      0.99999523	      0.97198853	      0.70895189	      0.77562014	      0.66133808	      0.36493220	      0.04295776	      0.02000000	      0.36439001	      0.02000000	      0.05559469	      0.02000000	      0.06185924	      0.36031208	      0.02645485	      0.02000000	      0.08529061	      0.07144110	      0.02000000	      0.36475869	      0.06858962	      0.06587583	      0.24139835	      0.02000000	      0.05778474	      0.89167867	      0.07363638	      0.02000000	      0.06946572	      0.02000000	      0.04471472	      0.16902112	      0.10850452	      0.50249073	      0.10216089	      0.27510383	      0.10557407
